<?xml version="1.0" standalone="no"?>
<!DOCTYPE svg PUBLIC "-//W3C//DTD SVG 20010904//EN"
 "http://www.w3.org/TR/2001/REC-SVG-20010904/DTD/svg10.dtd">
<svg version="1.0" xmlns="http://www.w3.org/2000/svg"
 width="496.000000pt" height="371.000000pt" viewBox="0 0 496.000000 371.000000"
 preserveAspectRatio="xMidYMid meet">

<g transform="translate(0.000000,371.000000) scale(0.100000,-0.100000)"
fill="#000000" stroke="none">
<path d="M1130 2190 c0 -417 3 -530 13 -530 6 -1 113 -9 237 -19 124 -10 228
-16 231 -12 9 9 83 1030 75 1038 -3 4 -109 15 -234 24 -125 10 -248 20 -274
23 l-48 5 0 -529z"/>
<path d="M3093 2543 c-21 -26 -70 -90 -109 -140 -38 -51 -72 -93 -75 -93 -3 0
-14 46 -24 103 -20 117 -28 137 -56 137 -29 0 -37 -31 -46 -188 l-8 -143 -63
76 c-49 58 -69 75 -85 73 -41 -6 -34 -41 55 -286 19 -51 39 -64 46 -29 2 9
-15 70 -38 134 l-41 118 33 -40 c70 -86 96 -107 117 -96 17 9 20 27 27 143 7
118 9 128 17 88 29 -139 31 -145 57 -145 19 0 43 24 119 123 51 67 96 121 98
118 2 -2 -9 -48 -26 -102 -17 -54 -31 -108 -31 -120 0 -38 32 -37 115 1 43 19
79 34 81 32 2 -2 -44 -57 -101 -122 -98 -112 -116 -143 -89 -152 6 -2 68 62
138 143 92 105 126 152 124 168 -5 34 -38 30 -133 -13 -48 -23 -89 -41 -90
-41 -2 0 15 59 38 131 29 97 37 136 30 148 -19 29 -40 22 -80 -26z"/>
<path d="M1799 2398 c0 -2 -15 -191 -33 -421 -18 -230 -36 -421 -40 -424 -5
-6 -321 15 -534 34 l-63 6 3 -139 3 -139 85 -7 c47 -4 182 -14 300 -23 118 -8
238 -18 266 -21 l52 -5 6 38 c10 52 47 131 80 171 85 100 276 129 405 62 86
-44 162 -161 177 -269 5 -43 11 -52 30 -57 36 -9 74 4 84 29 5 12 18 136 28
276 l20 254 -75 241 c-41 133 -78 252 -82 266 -7 25 -13 26 -342 77 -319 49
-368 56 -370 51z m465 -193 c88 -14 167 -29 175 -33 10 -6 134 -392 127 -398
-3 -4 -512 89 -518 95 -4 3 -3 67 3 141 14 196 18 220 36 220 9 0 88 -11 177
-25z"/>
<path d="M3855 2175 c-82 -13 -221 -34 -307 -46 l-157 -23 -228 -204 c-125
-113 -252 -227 -280 -253 l-53 -47 30 -203 c17 -112 34 -206 38 -210 17 -15
184 -101 180 -93 -37 77 -42 95 -42 154 0 45 6 79 20 111 96 209 388 211 490
4 24 -50 26 -64 22 -135 -3 -44 -4 -80 -4 -80 7 1 413 61 444 66 l42 7 0 313
c0 173 -3 314 -7 314 -11 0 -132 -19 -164 -26 l-26 -5 -17 113 c-9 62 -19 124
-22 139 -5 25 -4 25 88 38 154 20 148 18 148 57 0 41 11 40 -195 9z m-91 -225
c10 -72 16 -133 14 -136 -3 -2 -81 -16 -174 -30 -93 -13 -212 -31 -264 -39
-52 -7 -96 -12 -97 -11 -2 1 49 72 112 157 l115 154 107 16 c60 10 122 17 138
18 l31 1 18 -130z"/>
<path d="M2052 1474 c-137 -68 -190 -225 -121 -363 100 -200 383 -200 483 1
51 102 27 237 -55 315 -81 77 -209 96 -307 47z m179 -129 c92 -48 90 -184 -4
-228 -47 -23 -78 -21 -118 6 -66 44 -83 121 -42 184 33 50 106 67 164 38z"/>
<path d="M3236 1445 c-138 -49 -179 -227 -78 -331 45 -46 88 -64 152 -64 115
0 200 88 200 206 0 58 -22 104 -70 148 -59 53 -130 68 -204 41z m135 -124 c52
-52 33 -138 -35 -161 -41 -13 -75 -2 -105 36 -49 62 -4 154 74 154 27 0 44 -8
66 -29z"/>
</g>
</svg>
