<?xml version="1.0" standalone="no"?>
<!DOCTYPE svg PUBLIC "-//W3C//DTD SVG 20010904//EN"
 "http://www.w3.org/TR/2001/REC-SVG-20010904/DTD/svg10.dtd">
<svg version="1.0" xmlns="http://www.w3.org/2000/svg"
 width="931.000000pt" height="682.000000pt" viewBox="0 0 931.000000 682.000000"
 preserveAspectRatio="xMidYMid meet">

<g transform="translate(0.000000,682.000000) scale(0.100000,-0.100000)"
fill="#000000" stroke="none">
<path d="M2681 6374 c-36 -7 -108 -35 -160 -61 -78 -38 -111 -62 -181 -132
-94 -93 -143 -170 -187 -292 -24 -67 -27 -88 -27 -224 -1 -117 3 -163 17 -208
77 -250 257 -431 507 -509 62 -19 96 -23 200 -23 147 1 214 16 340 78 69 33
103 59 176 132 101 100 151 178 192 303 22 67 26 95 26 212 1 115 -3 146 -22
210 -80 255 -278 447 -526 510 -94 24 -257 26 -355 4z m418 -658 c32 -29 29
-88 -5 -115 -25 -20 -39 -21 -243 -21 -239 0 -254 3 -266 60 -8 36 14 76 48
90 12 5 117 8 233 7 193 -2 214 -4 233 -21z"/>
<path d="M6400 6370 c-403 -104 -642 -539 -516 -935 117 -364 493 -581 861
-496 226 53 396 186 500 393 61 121 79 211 72 357 -6 137 -33 235 -96 340
-103 174 -283 307 -470 347 -96 20 -260 17 -351 -6z m245 -471 c14 -14 20 -36
23 -88 l4 -69 70 -4 c63 -3 73 -7 95 -33 19 -22 24 -35 19 -59 -10 -50 -38
-66 -117 -66 l-69 0 0 -60 c0 -64 -18 -113 -45 -124 -32 -12 -69 -6 -92 16
-20 19 -23 31 -23 95 l0 73 -72 0 c-85 0 -118 21 -118 76 0 56 25 73 110 76
l75 3 5 75 c3 41 9 81 14 88 22 35 85 36 121 1z"/>
<path d="M4021 4979 c-107 -21 -192 -93 -230 -193 -20 -53 -21 -75 -21 -336
l0 -280 -274 0 -273 0 -5 108 c-5 118 -28 186 -88 262 -58 73 -181 130 -281
130 -61 0 -164 -37 -217 -79 -97 -77 -142 -182 -142 -338 l0 -82 -336 -3 -336
-3 -24 -28 c-31 -36 -31 -77 -1 -105 22 -21 33 -22 175 -22 l152 0 0 -1485 0
-1485 -140 0 c-149 0 -181 -7 -199 -47 -17 -37 -13 -62 14 -88 l24 -25 2901 0
c2874 0 2900 0 2920 20 42 42 33 112 -18 131 -13 5 -86 9 -163 9 l-139 0 0
1485 0 1485 150 0 c147 0 152 1 175 25 33 32 33 74 -1 106 l-26 24 -333 3
-333 3 -4 112 c-3 97 -7 120 -30 170 -62 131 -184 210 -328 211 -95 1 -158
-21 -232 -79 -45 -35 -64 -60 -94 -120 -35 -71 -38 -84 -42 -186 l-5 -109
-273 0 -274 0 0 288 c0 286 0 287 -26 342 -34 74 -96 135 -164 163 -55 22 -56
22 -735 24 -374 0 -700 -3 -724 -8z m1406 -169 c25 -11 51 -33 63 -52 19 -31
20 -50 20 -310 l0 -278 -104 0 -103 0 -5 158 c-4 119 -9 165 -21 188 -22 43
-91 100 -129 108 -17 3 -213 6 -437 6 -402 0 -407 0 -451 -22 -95 -49 -120
-116 -120 -319 l0 -119 -105 0 -105 0 0 278 c0 260 1 279 20 310 12 19 38 41
63 52 40 19 73 20 707 20 634 0 667 -1 707 -20z m-2514 -311 c21 -5 54 -24 74
-42 55 -48 73 -97 73 -199 l0 -88 -206 0 -206 0 4 103 c3 93 5 106 32 145 53
77 136 107 229 81z m3789 -27 c66 -45 88 -99 88 -209 l0 -90 -152 -6 c-83 -4
-175 -7 -205 -7 l-53 0 0 93 c0 104 17 153 68 200 68 64 176 72 254 19z
m-1574 -14 c8 -8 12 -56 12 -150 l0 -138 -420 -2 -420 -3 0 133 c0 73 5 142
10 153 10 18 25 19 408 19 296 0 401 -3 410 -12z m2035 -1188 c-1 -404 -2
-1071 -2 -1482 l-1 -748 -2440 0 -2440 0 -1 748 c0 411 -2 1076 -3 1477 -1
402 0 733 2 738 2 4 1102 6 2445 5 l2442 -3 -2 -735z"/>
<path d="M4505 3630 c-205 -41 -376 -124 -535 -260 -184 -159 -324 -410 -366
-657 -20 -114 -15 -315 10 -429 49 -228 160 -421 340 -591 334 -316 827 -390
1252 -189 167 79 303 190 414 338 261 346 300 796 104 1190 -60 121 -93 167
-197 275 -133 138 -257 217 -439 281 -177 63 -399 79 -583 42z m230 -560 c5
-9 -12 -121 -46 -293 -14 -72 -11 -98 13 -124 21 -23 25 -23 224 -23 111 0
209 -3 218 -6 9 -3 16 -14 16 -23 0 -10 -46 -85 -103 -167 -56 -82 -137 -201
-180 -264 -42 -63 -88 -129 -101 -145 -23 -28 -26 -29 -41 -14 -15 15 -14 27
10 167 39 222 46 215 -244 222 -190 4 -216 7 -219 21 -2 9 46 93 106 185 59
93 152 238 206 322 94 147 121 174 141 142z"/>
</g>
</svg>
