<?xml version="1.0" standalone="no"?>
<!DOCTYPE svg PUBLIC "-//W3C//DTD SVG 20010904//EN"
 "http://www.w3.org/TR/2001/REC-SVG-20010904/DTD/svg10.dtd">
<svg version="1.0" xmlns="http://www.w3.org/2000/svg"
 width="458.000000pt" height="405.000000pt" viewBox="0 0 458.000000 405.000000"
 preserveAspectRatio="xMidYMid meet">

<g transform="translate(0.000000,405.000000) scale(0.100000,-0.100000)"
fill="#000000" stroke="none">
<path d="M1264 3812 c-20 -13 -34 -50 -34 -91 l0 -41 -50 0 c-81 0 -116 -55
-65 -105 18 -19 35 -25 70 -25 l45 0 0 -45 c0 -35 6 -52 25 -70 50 -51 105
-16 105 65 l0 50 41 0 c66 0 99 24 99 72 0 37 -34 58 -92 58 l-48 0 0 48 c0
58 -21 92 -58 92 -15 0 -32 -4 -38 -8z"/>
<path d="M3382 3664 c-13 -9 -22 -25 -22 -42 1 -62 28 -72 210 -72 147 0 152
1 175 25 30 29 32 54 5 83 -20 21 -29 22 -183 22 -131 0 -167 -3 -185 -16z"/>
<path d="M2792 3161 c-53 -49 -203 -191 -332 -315 l-235 -225 -272 0 -273 -1
0 130 c0 163 -5 170 -110 170 l-70 0 0 134 c0 109 -3 138 -16 150 -13 13 -44
16 -188 16 -219 0 -206 11 -206 -168 l0 -132 -67 0 c-38 0 -73 -4 -79 -8 -26
-17 -34 -56 -34 -171 l0 -121 -134 0 c-133 0 -135 0 -155 -26 -21 -27 -21 -28
-21 -1199 0 -1171 0 -1172 21 -1199 l20 -26 1789 0 1789 0 20 26 c21 27 21 28
21 1199 0 1171 0 1172 -21 1199 -20 26 -22 26 -155 26 l-134 0 0 121 c0 115
-8 154 -34 171 -6 4 -41 8 -78 8 l-68 0 0 133 c0 117 -2 136 -18 150 -27 24
-352 25 -376 1 -13 -12 -16 -41 -16 -150 l0 -134 -74 0 c-103 0 -106 -5 -106
-172 l0 -128 -261 0 c-143 0 -259 4 -257 8 2 5 72 128 156 274 83 146 152 274
152 286 0 22 -43 62 -67 62 -7 0 -57 -40 -111 -89z m-1412 -151 l0 -90 -80 0
-80 0 0 90 0 90 80 0 80 0 0 -90z m2260 0 l0 -90 -80 0 -80 0 0 90 0 90 80 0
80 0 0 -90z m-1028 -212 c-100 -166 -232 -410 -232 -430 0 -14 9 -33 20 -43
17 -15 53 -19 282 -27 145 -5 274 -13 287 -17 22 -6 -9 -38 -350 -363 -206
-196 -375 -355 -377 -353 -2 2 51 98 117 214 67 116 121 222 121 235 0 32 -23
54 -63 60 -18 3 -124 8 -237 12 -113 3 -230 9 -261 12 l-56 7 381 362 c210
200 382 363 384 363 2 0 -5 -15 -16 -32z m-1062 -88 l0 -90 -255 0 -255 0 0
83 c0 46 3 87 7 90 3 4 118 7 255 7 l248 0 0 -90z m2268 -2 l3 -88 -256 0
-255 0 0 90 0 90 253 -2 252 -3 3 -87z m-1873 -350 c-230 -217 -305 -293 -305
-311 0 -9 10 -27 23 -41 l22 -25 313 -12 c262 -11 312 -15 307 -27 -3 -8 -97
-175 -210 -371 -113 -197 -205 -367 -205 -378 0 -11 9 -28 19 -37 47 -43 43
-46 691 568 335 319 612 587 615 597 7 21 -13 66 -33 74 -8 3 -134 10 -281 16
-146 5 -285 12 -308 15 l-43 5 15 30 16 29 774 0 775 0 0 -965 0 -965 -1700 0
-1700 0 0 965 0 965 677 0 677 0 -139 -132z m2185 -1993 l0 -65 -1700 0 -1700
0 0 65 0 65 1700 0 1700 0 0 -65z"/>
</g>
</svg>
