<?xml version="1.0" standalone="no"?>
<!DOCTYPE svg PUBLIC "-//W3C//DTD SVG 20010904//EN"
 "http://www.w3.org/TR/2001/REC-SVG-20010904/DTD/svg10.dtd">
<svg version="1.0" xmlns="http://www.w3.org/2000/svg"
 width="489.000000pt" height="387.000000pt" viewBox="0 0 489.000000 387.000000"
 preserveAspectRatio="xMidYMid meet">

<g transform="translate(0.000000,387.000000) scale(0.100000,-0.100000)"
fill="#000000" stroke="none">
<path d="M2330 2835 l0 -275 120 0 120 0 0 275 0 275 -120 0 -120 0 0 -275z"/>
<path d="M1556 2771 c-43 -43 -77 -83 -75 -89 2 -5 94 -93 204 -196 l200 -188
78 81 c42 44 77 85 77 90 0 8 -384 373 -398 379 -4 1 -43 -33 -86 -77z"/>
<path d="M3061 2666 c-107 -100 -197 -188 -199 -194 -2 -6 32 -48 75 -93 l79
-81 199 187 c110 103 202 192 204 197 3 9 -147 168 -159 168 -3 0 -93 -83
-199 -184z"/>
<path d="M2301 2370 c-302 -64 -529 -273 -624 -578 -19 -62 -21 -96 -25 -484
l-4 -418 -79 0 -79 0 0 -290 0 -290 960 0 960 0 0 290 0 290 -79 0 -80 0 -4
413 c-3 358 -6 420 -21 477 -77 275 -278 484 -551 570 -79 25 -295 36 -374 20z
m309 -250 c183 -54 335 -211 385 -400 12 -44 15 -136 15 -442 l0 -388 -560 0
-560 0 0 388 c0 424 2 440 61 562 21 43 57 89 103 136 152 153 349 204 556
144z m560 -1525 l0 -55 -720 0 -720 0 0 55 0 55 720 0 720 0 0 -55z"/>
</g>
</svg>
