<?xml version="1.0" standalone="no"?>
<!DOCTYPE svg PUBLIC "-//W3C//DTD SVG 20010904//EN"
 "http://www.w3.org/TR/2001/REC-SVG-20010904/DTD/svg10.dtd">
<svg version="1.0" xmlns="http://www.w3.org/2000/svg"
 width="765.000000pt" height="473.000000pt" viewBox="0 0 765.000000 473.000000"
 preserveAspectRatio="xMidYMid meet">

<g transform="translate(0.000000,473.000000) scale(0.100000,-0.100000)"
fill="#000000" stroke="none">
<path d="M3690 3709 c-103 -11 -220 -39 -284 -70 -61 -28 -87 -54 -418 -420
l-276 -306 -394 -6 c-505 -9 -731 -25 -1001 -73 -159 -28 -290 -67 -317 -94
-24 -24 -47 -102 -62 -201 -15 -106 2 -225 36 -254 20 -17 27 -37 40 -130 9
-61 16 -114 16 -118 0 -4 -13 -7 -29 -7 -47 0 -82 -37 -88 -92 -5 -42 -2 -50
24 -76 23 -24 41 -31 91 -37 62 -7 63 -7 86 -54 32 -62 56 -88 89 -95 24 -6
30 -3 35 16 3 13 26 63 50 112 33 66 63 108 116 161 122 124 249 171 436 162
180 -9 333 -73 461 -194 79 -75 115 -139 130 -234 26 -169 80 -236 222 -281
43 -13 339 -42 1156 -113 604 -52 1117 -95 1139 -95 71 0 142 20 177 51 24 21
41 52 64 120 65 185 135 295 215 336 l29 15 -35 -43 c-77 -95 -120 -190 -133
-290 -9 -70 10 -196 40 -271 l23 -58 -43 0 c-65 0 -93 -40 -59 -88 l15 -22
537 0 c593 0 582 -1 582 60 0 35 -32 60 -77 60 -36 0 -40 6 -20 35 21 31 37
83 47 158 18 121 -16 264 -85 367 -44 66 -13 50 43 -22 58 -75 81 -135 108
-283 30 -158 47 -196 94 -213 49 -17 149 -7 245 25 72 24 87 34 153 100 43 43
81 73 93 73 11 0 34 13 50 29 52 52 31 148 -36 165 -20 5 -24 11 -20 29 5 23
25 229 25 257 0 9 13 20 32 25 17 6 35 17 39 25 13 26 26 184 17 208 -9 26
-62 52 -105 52 -19 0 -53 19 -102 56 -96 72 -99 73 -557 264 l-391 162 -236
317 c-129 174 -266 346 -304 383 -168 167 -398 291 -621 337 -334 70 -812 105
-1062 80z m364 -239 c312 -21 464 -35 497 -45 62 -21 133 -84 167 -149 26 -49
27 -56 25 -196 -1 -80 -6 -183 -11 -230 -9 -76 -13 -87 -41 -112 -26 -23 -41
-28 -84 -28 -104 -1 -1432 123 -1464 136 -39 15 -73 67 -73 109 0 43 20 71
205 289 157 186 188 215 260 243 41 16 14 16 519 -17z m1881 -1844 c71 -32
139 -103 165 -174 18 -46 21 -72 18 -137 -7 -135 -64 -221 -185 -277 -56 -27
-72 -30 -136 -26 -135 7 -242 78 -296 199 -27 59 -28 170 -2 239 65 172 265
253 436 176z"/>
<path d="M5763 1439 c-43 -13 -73 -57 -73 -109 0 -34 6 -48 34 -76 28 -28 42
-34 76 -34 57 0 110 50 110 104 0 85 -68 138 -147 115z"/>
<path d="M1760 2000 c-269 -51 -461 -270 -462 -525 0 -144 42 -256 135 -361
210 -235 557 -246 777 -24 204 205 209 529 12 750 -102 115 -314 188 -462 160z
m219 -241 c171 -73 236 -306 132 -470 -105 -167 -337 -192 -490 -53 -116 104
-135 293 -41 422 36 50 111 102 170 119 61 18 167 9 229 -18z"/>
<path d="M1760 1553 c-59 -53 -48 -153 20 -188 85 -44 180 23 167 119 -8 58
-52 96 -112 96 -35 0 -52 -6 -75 -27z"/>
</g>
</svg>
