<?xml version="1.0" standalone="no"?>
<!DOCTYPE svg PUBLIC "-//W3C//DTD SVG 20010904//EN"
 "http://www.w3.org/TR/2001/REC-SVG-20010904/DTD/svg10.dtd">
<svg version="1.0" xmlns="http://www.w3.org/2000/svg"
 width="456.000000pt" height="357.000000pt" viewBox="0 0 456.000000 357.000000"
 preserveAspectRatio="xMidYMid meet">

<g transform="translate(0.000000,357.000000) scale(0.100000,-0.100000)"
fill="#000000" stroke="none">
<path d="M3029 3098 c-67 -73 -86 -110 -74 -145 7 -19 87 -90 255 -225 273
-219 295 -234 333 -224 36 9 137 139 137 176 0 36 -9 45 -305 279 -186 148
-247 191 -269 191 -22 0 -40 -12 -77 -52z"/>
<path d="M1713 3125 c-12 -8 -185 -220 -385 -471 -200 -251 -493 -619 -651
-818 -278 -349 -287 -362 -285 -401 l3 -40 745 -593 c410 -326 755 -595 767
-598 12 -3 31 -3 42 1 11 3 107 115 213 248 106 133 359 451 563 707 204 256
456 573 561 705 l191 240 15 145 c8 88 11 155 6 171 -6 18 -111 106 -326 276
l-317 250 -380 67 c-817 145 -731 133 -762 111z m415 -229 c131 -28 209 -50
222 -61 28 -26 27 -85 -2 -112 -38 -34 -62 -35 -205 -8 -76 14 -164 31 -197
37 -67 13 -112 45 -121 88 -11 49 27 99 76 100 14 0 116 -20 227 -44z"/>
<path d="M3723 1773 c-51 -104 -94 -201 -98 -216 -10 -47 20 -128 62 -169 47
-45 79 -58 146 -58 107 1 188 81 195 193 l3 62 -102 188 c-56 103 -105 187
-108 187 -4 0 -48 -84 -98 -187z"/>
</g>
</svg>
