<?xml version="1.0" standalone="no"?>
<!DOCTYPE svg PUBLIC "-//W3C//DTD SVG 20010904//EN"
 "http://www.w3.org/TR/2001/REC-SVG-20010904/DTD/svg10.dtd">
<svg version="1.0" xmlns="http://www.w3.org/2000/svg"
 width="502.000000pt" height="726.000000pt" viewBox="0 0 502.000000 726.000000"
 preserveAspectRatio="xMidYMid meet">

<g transform="translate(0.000000,726.000000) scale(0.100000,-0.100000)"
fill="#000000" stroke="none">
<path d="M2244 7210 c-376 -53 -779 -239 -1111 -513 l-73 -60 0 -796 0 -796
498 -508 c666 -681 866 -867 932 -867 15 0 45 13 66 29 34 24 936 927 1252
1252 l112 115 0 792 0 792 -77 62 c-239 190 -545 351 -820 432 -194 57 -264
67 -498 71 -121 2 -248 0 -281 -5z m338 -641 c72 -16 116 -40 172 -94 172
-167 127 -455 -89 -565 -63 -32 -75 -35 -159 -35 -78 0 -99 4 -148 27 -63 29
-139 101 -168 158 -10 21 -24 67 -31 103 -33 177 79 355 254 402 65 17 102 18
169 4z m-892 -1271 c61 -31 90 -77 90 -142 0 -169 -202 -228 -297 -87 -32 47
-32 125 0 172 24 37 97 79 137 79 14 0 46 -10 70 -22z m1753 8 c44 -18 95 -78
103 -122 14 -74 -35 -162 -103 -184 -46 -16 -118 -7 -152 17 -52 39 -73 83
-69 144 5 68 32 109 90 138 50 24 86 26 131 7z m-834 -744 c93 -57 118 -175
55 -265 -82 -116 -236 -116 -317 -1 -43 61 -47 119 -13 188 54 110 169 142
275 78z"/>
<path d="M2849 3746 c-333 -327 -386 -328 -719 -12 l-85 81 -3 -54 c-4 -77 24
-191 67 -276 74 -142 174 -252 486 -532 194 -174 284 -270 351 -374 147 -226
152 -584 13 -821 -116 -197 -349 -360 -564 -394 -347 -55 -656 80 -839 369
-56 88 -85 162 -196 512 -187 585 -226 690 -327 887 -69 135 -148 235 -203
258 -81 33 -181 -17 -212 -106 -23 -65 -22 -118 2 -261 19 -108 20 -155 18
-573 -2 -384 1 -472 15 -562 46 -294 149 -575 293 -796 265 -406 659 -684
1124 -791 238 -55 577 -53 835 5 707 159 1253 701 1409 1396 85 380 70 757
-44 1083 -173 493 -600 916 -1121 1110 -52 19 -98 35 -104 35 -5 -1 -94 -83
-196 -184z"/>
</g>
</svg>
