<?xml version="1.0" standalone="no"?>
<!DOCTYPE svg PUBLIC "-//W3C//DTD SVG 20010904//EN"
 "http://www.w3.org/TR/2001/REC-SVG-20010904/DTD/svg10.dtd">
<svg version="1.0" xmlns="http://www.w3.org/2000/svg"
 width="816.000000pt" height="707.000000pt" viewBox="0 0 816.000000 707.000000"
 preserveAspectRatio="xMidYMid meet">

<g transform="translate(0.000000,707.000000) scale(0.100000,-0.100000)"
fill="#000000" stroke="none">
<path d="M998 7034 c-151 -36 -295 -149 -363 -283 -69 -138 -65 -4 -65 -2017
0 -1249 3 -1839 11 -1880 15 -85 78 -209 137 -271 65 -67 158 -128 241 -155
61 -20 89 -22 394 -26 l327 -3 0 -220 0 -219 110 0 110 0 0 -220 0 -220 109 0
108 0 6 -88 c36 -585 480 -1094 1056 -1212 670 -136 1329 254 1535 908 60 192
61 199 61 1107 l0 830 -112 3 -112 3 -3 -863 -3 -863 -27 -96 c-59 -215 -150
-370 -304 -519 -111 -107 -178 -154 -297 -210 -411 -193 -899 -115 -1226 195
-208 197 -319 432 -347 733 l-7 72 112 0 111 0 0 220 0 220 110 0 110 0 0 219
0 220 328 3 c304 4 332 6 393 26 83 27 176 88 241 155 59 62 122 186 137 271
8 41 11 631 11 1880 0 1569 -2 1830 -15 1884 -48 204 -213 369 -417 417 -91
21 -2372 21 -2460 -1z m2454 -227 c27 -11 71 -39 98 -64 50 -45 106 -135 95
-153 -3 -4 -20 -12 -38 -15 -99 -21 -234 -128 -299 -236 -75 -128 -80 -157
-87 -554 l-6 -349 -34 44 c-172 225 -437 384 -736 441 -91 18 -339 18 -430 0
-299 -57 -564 -216 -736 -441 l-34 -44 -6 349 c-7 397 -12 426 -87 554 -65
108 -200 215 -299 236 -18 3 -35 11 -38 15 -11 17 43 106 90 149 49 45 93 67
159 81 23 4 559 7 1191 7 1091 -2 1152 -3 1197 -20z m-2580 -486 c30 -22 67
-58 82 -81 59 -90 56 0 56 -1519 l0 -1396 -29 -60 c-29 -61 -93 -130 -149
-159 -17 -9 -33 -16 -37 -16 -3 0 -5 736 -5 1635 0 1358 2 1635 13 1635 8 0
38 -18 69 -39z m2798 -1596 c0 -899 -4 -1635 -8 -1635 -18 0 -99 59 -131 95
-18 21 -44 61 -57 89 l-24 51 0 1396 c0 1519 -3 1429 56 1519 28 42 126 120
151 120 11 0 13 -277 13 -1635z m-1259 979 c291 -55 551 -244 693 -504 76
-139 106 -252 113 -426 9 -215 -30 -380 -129 -549 -63 -107 -239 -290 -330
-343 -87 -52 -224 -108 -313 -128 -116 -27 -340 -25 -449 5 -196 53 -318 123
-461 266 -129 129 -199 238 -245 381 -44 139 -53 209 -47 368 7 174 37 287
113 426 174 318 505 517 865 519 59 1 144 -6 190 -15z m-1020 -1860 c136 -125
358 -248 524 -290 300 -75 587 -46 850 85 176 89 293 180 395 309 l58 72 5
-352 c5 -391 6 -401 73 -529 52 -100 130 -176 234 -228 45 -23 88 -41 96 -41
7 0 15 -4 19 -10 11 -18 -45 -108 -96 -153 -84 -73 -105 -77 -460 -77 l-309 0
0 130 c0 149 -10 183 -68 243 -62 63 -89 67 -473 67 -385 0 -422 -4 -482 -59
-65 -59 -77 -95 -77 -248 l0 -133 -309 0 c-355 0 -376 4 -460 77 -51 45 -107
135 -96 153 4 6 12 10 19 10 8 0 51 18 96 41 104 52 182 128 234 228 67 128
68 138 73 529 l5 352 58 -72 c32 -40 73 -87 91 -104z m1169 -1334 l0 -330
-330 0 -330 0 0 330 0 330 168 2 c92 2 240 2 330 0 l162 -3 0 -329z m-220
-660 l0 -110 -110 0 -110 0 0 110 0 110 110 0 110 0 0 -110z"/>
<path d="M1460 6165 l0 -115 110 0 110 0 0 115 0 115 -110 0 -110 0 0 -115z"/>
<path d="M1900 6165 l0 -115 110 0 110 0 0 115 0 115 -110 0 -110 0 0 -115z"/>
<path d="M2340 6165 l0 -115 110 0 110 0 0 115 0 115 -110 0 -110 0 0 -115z"/>
<path d="M2780 6165 l0 -115 110 0 110 0 0 115 0 115 -110 0 -110 0 0 -115z"/>
<path d="M2115 5499 c-49 -23 -91 -42 -93 -43 -1 -2 54 -135 124 -297 69 -162
128 -300 131 -306 4 -10 -42 -13 -211 -13 -168 0 -216 -3 -216 -13 0 -14 377
-898 388 -909 5 -5 179 62 200 78 2 1 -55 139 -127 306 -71 166 -126 307 -122
311 4 4 101 6 214 5 133 -2 207 1 207 7 0 22 -386 915 -395 914 -5 0 -50 -18
-100 -40z"/>
<path d="M5620 7039 c-509 -58 -944 -465 -1046 -981 -14 -71 -17 -185 -21
-765 l-4 -683 115 1 116 1 0 670 c0 729 0 732 59 899 73 205 254 414 452 523
152 83 296 119 479 119 183 0 327 -36 479 -119 198 -109 379 -318 452 -523 62
-175 59 -99 59 -1616 l0 -1385 -110 0 -110 0 0 -220 0 -220 -62 -1 c-35 0 -84
0 -110 1 l-48 1 0 -665 0 -666 110 0 110 0 0 -226 0 -225 333 4 332 4 3 221 2
222 110 0 110 0 0 665 0 665 -110 0 -110 0 0 220 0 220 -110 0 -109 0 -4 1398
c-3 1260 -5 1405 -20 1480 -107 525 -538 924 -1059 981 -110 12 -179 12 -288
0z m1353 -4089 c15 0 17 -12 17 -105 l0 -105 -62 -1 c-35 0 -84 -1 -111 -2
l-47 -2 0 107 0 107 58 4 c31 2 73 3 92 1 19 -2 43 -4 53 -4z m237 -880 l0
-440 -330 0 -330 0 0 440 0 440 330 0 330 0 0 -440z m-220 -770 l0 -110 -62
-1 c-35 0 -84 -1 -111 -2 l-47 -2 0 113 0 112 110 0 110 0 0 -110z"/>
<path d="M4550 4280 l0 -110 110 0 110 0 0 110 0 110 -110 0 -110 0 0 -110z"/>
<path d="M4550 3840 l0 -110 110 0 110 0 0 110 0 110 -110 0 -110 0 0 -110z"/>
<path d="M4550 3400 l0 -110 110 0 110 0 0 110 0 110 -110 0 -110 0 0 -110z"/>
</g>
</svg>
