<?xml version="1.0" standalone="no"?>
<!DOCTYPE svg PUBLIC "-//W3C//DTD SVG 20010904//EN"
 "http://www.w3.org/TR/2001/REC-SVG-20010904/DTD/svg10.dtd">
<svg version="1.0" xmlns="http://www.w3.org/2000/svg"
 width="593.000000pt" height="497.000000pt" viewBox="0 0 593.000000 497.000000"
 preserveAspectRatio="xMidYMid meet">

<g transform="translate(0.000000,497.000000) scale(0.100000,-0.100000)"
fill="#000000" stroke="none">
<path d="M2790 4654 c-217 -40 -357 -92 -505 -190 -196 -129 -324 -273 -427
-479 -116 -231 -129 -313 -135 -842 l-5 -413 -95 0 c-86 0 -96 -2 -118 -25
l-25 -24 0 -1109 0 -1109 26 -24 26 -24 1407 0 c1556 0 1452 -5 1471 64 14 51
13 2143 -1 2194 -14 51 -52 67 -159 67 l-80 0 0 364 c0 532 -12 617 -125 881
-24 57 -114 189 -179 264 -130 150 -309 270 -521 349 -99 37 -204 54 -365 57
-91 2 -176 1 -190 -1z m395 -414 c283 -90 479 -292 567 -585 20 -66 22 -96 26
-492 l3 -423 -831 0 -831 0 3 423 c4 456 2 432 64 598 63 169 222 339 399 426
134 67 213 83 390 79 111 -3 155 -8 210 -26z m-158 -2911 c159 -59 213 -254
106 -378 -51 -61 -104 -85 -183 -84 -267 1 -330 363 -80 462 34 13 122 13 157
0z"/>
</g>
</svg>
