<?xml version="1.0" encoding="UTF-8"?>
<!DOCTYPE svg PUBLIC "-//W3C//DTD SVG 1.1//EN" "http://www.w3.org/Graphics/SVG/1.1/DTD/svg11.dtd">
<svg xmlns="http://www.w3.org/2000/svg" version="1.1" width="466px" height="412px" style="shape-rendering:geometricPrecision; text-rendering:geometricPrecision; image-rendering:optimizeQuality; fill-rule:evenodd; clip-rule:evenodd" xmlns:xlink="http://www.w3.org/1999/xlink">
<g><path style="opacity:1" fill="#f3f3f5" d="M -0.5,-0.5 C 154.833,-0.5 310.167,-0.5 465.5,-0.5C 465.5,136.833 465.5,274.167 465.5,411.5C 310.167,411.5 154.833,411.5 -0.5,411.5C -0.5,274.167 -0.5,136.833 -0.5,-0.5 Z"/></g>
<g><path style="opacity:1" fill="#040404" d="M 236.5,57.5 C 293.237,56.9471 337.403,79.9471 369,126.5C 384.908,152.638 392.241,180.972 391,211.5C 390.167,212.333 389.333,213.167 388.5,214C 384.5,214.667 380.5,214.667 376.5,214C 375.815,179.613 364.982,148.78 344,121.5C 315.196,90.0009 279.363,74.1675 236.5,74C 233.906,68.5641 233.906,63.0641 236.5,57.5 Z"/></g>
<g><path style="opacity:1" fill="#010101" d="M 133.5,107.5 C 140,106.617 146,107.784 151.5,111C 168.759,130.922 185.259,151.422 201,172.5C 202.01,178.064 201.343,183.398 199,188.5C 190,197.5 181,206.5 172,215.5C 171.833,216.5 171.667,217.5 171.5,218.5C 185.085,244.586 204.918,264.586 231,278.5C 240.458,270.043 249.625,261.21 258.5,252C 265.915,246.426 273.581,246.093 281.5,251C 300.667,266.833 319.833,282.667 339,298.5C 343.565,305.468 343.565,312.468 339,319.5C 329.833,328.667 320.667,337.833 311.5,347C 301.193,352.728 290.193,354.728 278.5,353C 208.246,338.718 155.412,300.552 120,238.5C 110.115,220.516 102.782,201.516 98,181.5C 96.5295,171.207 96.1961,160.873 97,150.5C 98.087,146.234 99.7536,142.234 102,138.5C 111.731,127.268 122.231,116.935 133.5,107.5 Z"/></g>
<g><path style="opacity:1" fill="#060606" d="M 237.5,109.5 C 286.585,110.1 319.418,133.433 336,179.5C 339.067,189.98 340.067,200.646 339,211.5C 338.167,212.333 337.333,213.167 336.5,214C 332.5,214.667 328.5,214.667 324.5,214C 323.667,213.167 322.833,212.333 322,211.5C 321.606,166.89 299.773,139.057 256.5,128C 250.167,127.667 243.833,127.333 237.5,127C 235.005,124.781 234.005,121.948 234.5,118.5C 234.028,114.904 235.028,111.904 237.5,109.5 Z"/></g>
</svg>
