<?xml version="1.0" standalone="no"?>
<!DOCTYPE svg PUBLIC "-//W3C//DTD SVG 20010904//EN"
 "http://www.w3.org/TR/2001/REC-SVG-20010904/DTD/svg10.dtd">
<svg version="1.0" xmlns="http://www.w3.org/2000/svg"
 width="917.000000pt" height="725.000000pt" viewBox="0 0 917.000000 725.000000"
 preserveAspectRatio="xMidYMid meet">

<g transform="translate(0.000000,725.000000) scale(0.100000,-0.100000)"
fill="#000000" stroke="none">
<path d="M4285 6955 c-5 -2 -27 -6 -48 -10 -45 -7 -107 -60 -131 -109 -8 -18
-20 -77 -25 -132 -17 -188 -79 -322 -206 -450 -136 -136 -303 -205 -500 -206
-173 -1 -309 50 -455 171 -112 94 -180 112 -265 72 -24 -12 -138 -116 -291
-268 -280 -275 -293 -294 -281 -394 7 -58 20 -81 99 -174 108 -128 161 -274
160 -440 -1 -200 -69 -363 -211 -506 -129 -129 -260 -185 -475 -204 -38 -3
-83 -12 -100 -19 -44 -19 -103 -88 -113 -133 -14 -66 -10 -723 5 -764 30 -84
124 -139 237 -139 73 0 195 -33 284 -78 116 -57 233 -177 294 -302 26 -52 54
-122 62 -155 19 -75 19 -250 1 -330 -8 -33 -14 -61 -12 -62 1 -1 195 191 431
427 l429 429 -37 117 c-181 564 -35 1172 379 1581 255 251 542 392 894 439
248 33 509 3 749 -86 456 -168 821 -571 946 -1045 46 -173 58 -273 52 -449
-10 -329 -110 -624 -296 -871 -241 -322 -552 -520 -951 -607 -88 -19 -135 -23
-295 -23 -219 0 -308 13 -489 73 l-116 37 -432 -433 c-238 -239 -424 -431
-413 -428 116 32 283 35 391 7 117 -30 228 -94 320 -186 129 -128 184 -247
205 -449 11 -113 24 -149 65 -189 63 -63 54 -62 454 -62 201 0 378 4 393 8 39
11 114 82 126 120 6 18 15 76 21 130 28 269 166 469 402 582 105 51 196 68
331 63 176 -7 288 -52 437 -177 84 -70 120 -85 192 -78 79 7 108 30 379 304
252 254 267 276 256 375 -7 54 -13 65 -109 184 -101 124 -151 269 -150 429 2
376 274 672 649 704 54 5 114 16 133 24 41 17 94 70 112 112 17 40 24 657 9
741 -21 111 -77 161 -198 176 -256 31 -362 75 -494 207 -142 143 -210 306
-211 506 -1 166 52 312 160 440 79 93 92 116 99 174 12 100 -1 119 -281 394
-153 152 -267 256 -291 268 -84 40 -154 21 -267 -73 -144 -120 -281 -171 -453
-170 -197 1 -364 70 -500 206 -127 128 -189 262 -206 450 -10 107 -25 149 -67
192 -57 57 -67 59 -437 61 -187 1 -344 0 -350 -2z"/>
<path d="M4415 4835 c-225 -42 -429 -155 -592 -329 -133 -142 -224 -320 -265
-516 -29 -137 -21 -345 17 -485 15 -55 29 -111 32 -124 5 -20 -132 -160 -1035
-1065 -1122 -1123 -1078 -1075 -1103 -1210 -50 -272 206 -522 477 -466 126 26
90 -7 1199 1101 572 571 1047 1039 1056 1039 9 0 42 -9 75 -20 152 -53 384
-66 549 -31 198 41 374 134 521 273 234 224 345 500 331 827 -6 150 -19 201
-49 201 -13 0 -116 -93 -299 -271 l-278 -270 -321 26 c-311 25 -360 32 -360
57 0 7 -12 156 -26 332 l-25 319 270 272 c298 298 308 313 234 335 -62 19
-316 22 -408 5z"/>
</g>
</svg>
