<?xml version="1.0" standalone="no"?>
<!DOCTYPE svg PUBLIC "-//W3C//DTD SVG 20010904//EN"
 "http://www.w3.org/TR/2001/REC-SVG-20010904/DTD/svg10.dtd">
<svg version="1.0" xmlns="http://www.w3.org/2000/svg"
 width="776.000000pt" height="598.000000pt" viewBox="0 0 776.000000 598.000000"
 preserveAspectRatio="xMidYMid meet">

<g transform="translate(0.000000,598.000000) scale(0.100000,-0.100000)"
fill="#000000" stroke="none">
<path d="M586 5521 c-16 -11 -38 -34 -50 -53 -20 -31 -21 -46 -21 -280 0 -234
1 -248 21 -275 11 -15 36 -38 54 -50 32 -23 38 -23 351 -23 l319 0 0 -173 0
-172 -47 -25 c-151 -80 -241 -267 -213 -443 20 -128 83 -225 196 -299 l65 -43
-3 -129 -3 -129 -45 -15 c-25 -8 -81 -38 -125 -68 -121 -80 -198 -185 -246
-334 -27 -85 -30 -239 -5 -324 66 -225 242 -392 463 -442 97 -21 231 -15 322
16 109 36 244 136 292 214 23 38 25 115 4 156 -21 41 -78 81 -123 87 -56 8
-101 -10 -158 -63 -69 -64 -124 -88 -204 -88 -85 0 -133 17 -188 68 -96 88
-120 217 -62 333 45 90 138 152 230 153 60 1 121 30 151 71 23 33 24 39 27
267 l3 232 37 19 c98 50 182 157 214 269 30 111 20 211 -33 318 -31 61 -122
154 -177 178 l-42 19 0 258 c0 240 1 261 21 306 66 150 11 329 -130 424 -85
57 -104 59 -504 59 -339 0 -364 -1 -391 -19z"/>
<path d="M2440 4294 c-195 -38 -360 -176 -469 -391 -96 -192 -111 -397 -39
-568 21 -50 90 -159 107 -170 6 -3 19 15 30 39 47 108 153 232 255 300 122 81
254 119 406 119 186 -1 344 -63 477 -187 134 -125 210 -273 233 -454 20 -150
-25 -335 -111 -468 -28 -43 -47 -80 -43 -81 5 -2 488 -262 1074 -578 1013
-546 1065 -573 1074 -552 38 98 96 195 153 257 122 132 265 204 454 230 196
27 394 -37 559 -180 155 -135 252 -372 236 -575 -7 -100 -38 -212 -78 -287
l-31 -58 -144 0 -145 0 48 53 c243 266 129 690 -216 808 -47 16 -89 23 -150
23 -230 1 -426 -152 -486 -379 -41 -151 14 -352 123 -458 l43 -42 -2557 -5
-2558 -5 -41 -24 c-60 -34 -88 -88 -82 -157 6 -67 29 -101 88 -131 l44 -23
3124 0 c2867 0 3127 1 3158 16 48 23 90 78 98 127 4 23 14 52 22 65 8 12 103
181 210 375 214 384 223 408 189 482 -10 20 -25 39 -32 42 -8 3 -102 111 -209
240 l-195 234 -210 622 c-115 342 -218 633 -228 647 -23 31 -1792 988 -1841
996 -22 4 -324 -38 -776 -106 l-741 -112 -243 132 c-296 161 -342 179 -464
185 -50 2 -102 1 -116 -1z"/>
<path d="M2675 3403 c-260 -32 -445 -240 -445 -499 0 -189 99 -353 267 -441
193 -101 437 -61 586 96 93 97 137 209 137 347 0 189 -99 353 -267 441 -78 41
-199 65 -278 56z"/>
</g>
</svg>
