<?xml version="1.0" standalone="no"?>
<!DOCTYPE svg PUBLIC "-//W3C//DTD SVG 20010904//EN"
 "http://www.w3.org/TR/2001/REC-SVG-20010904/DTD/svg10.dtd">
<svg version="1.0" xmlns="http://www.w3.org/2000/svg"
 width="477.000000pt" height="388.000000pt" viewBox="0 0 477.000000 388.000000"
 preserveAspectRatio="xMidYMid meet">

<g transform="translate(0.000000,388.000000) scale(0.100000,-0.100000)"
fill="#000000" stroke="none">
<path d="M2470 3674 c-332 -30 -660 -155 -930 -352 -97 -71 -265 -235 -345
-337 -254 -324 -385 -704 -385 -1120 0 -376 99 -697 311 -1016 64 -95 114
-156 218 -259 156 -156 272 -242 451 -334 525 -270 1135 -270 1660 0 531 274
890 787 970 1387 14 112 12 355 -5 472 -60 413 -237 759 -536 1051 -263 256
-578 418 -944 484 -107 20 -365 33 -465 24z m875 -572 c404 -108 628 -541 485
-935 -67 -183 -216 -339 -397 -415 -231 -98 -520 -57 -715 99 -329 264 -366
734 -84 1046 107 118 263 200 431 227 57 9 210 -3 280 -22z m-1498 -353 c33
-16 63 -46 120 -123 42 -55 115 -148 161 -206 96 -118 112 -150 112 -217 -1
-74 -28 -120 -123 -206 -48 -44 -87 -86 -87 -94 0 -52 604 -653 656 -653 15 0
43 25 89 78 101 117 177 150 275 121 21 -6 90 -53 154 -105 64 -51 158 -124
209 -163 114 -86 141 -128 141 -217 0 -71 -10 -91 -136 -264 -73 -100 -90
-118 -141 -144 -116 -60 -182 -48 -442 79 -352 173 -607 356 -865 621 -233
240 -390 468 -554 804 -101 206 -122 278 -107 351 14 63 41 117 78 150 33 31
229 171 270 193 42 23 138 20 190 -5z"/>
<path d="M3035 3036 c-246 -57 -427 -229 -491 -467 -20 -77 -23 -222 -5 -299
7 -30 31 -93 53 -139 33 -68 56 -101 122 -166 137 -136 280 -191 476 -183 129
6 223 36 323 104 176 121 277 306 278 515 2 188 -61 339 -194 469 -142 139
-377 209 -562 166z m233 -213 c109 -63 136 -217 54 -315 -14 -17 -39 -38 -54
-48 l-28 -17 41 -13 c56 -19 134 -91 166 -154 37 -71 43 -187 14 -234 -43 -68
-61 -72 -301 -72 -240 0 -259 5 -300 72 -25 42 -27 135 -3 204 22 64 120 164
181 183 l42 14 -27 17 c-138 86 -137 295 2 368 72 37 143 36 213 -5z"/>
<path d="M3103 2761 c-105 -48 -96 -202 15 -241 37 -13 47 -13 84 0 112 39
119 189 13 240 -51 24 -59 24 -112 1z"/>
<path d="M3110 2368 c-56 -10 -115 -51 -154 -106 -25 -35 -31 -55 -34 -111 -6
-101 -6 -101 240 -101 185 0 199 1 218 20 45 45 10 184 -61 244 -60 51 -130
69 -209 54z"/>
<path d="M1672 2670 l-33 -21 37 -52 c89 -123 348 -451 400 -506 12 -13 16
-12 35 5 46 41 63 118 38 166 -6 11 -48 66 -93 122 -45 55 -110 138 -144 183
-34 44 -73 91 -88 102 -35 28 -107 28 -152 1z"/>
<path d="M1497 2547 c-96 -73 -125 -137 -106 -229 13 -61 189 -412 271 -543
259 -410 586 -720 1023 -971 133 -76 347 -177 416 -195 90 -24 155 7 235 116
l52 69 -147 109 c-80 61 -201 156 -269 211 -175 143 -160 135 -187 104 -30
-36 -57 -48 -102 -48 -49 0 -57 6 -247 179 -212 194 -473 479 -482 526 -9 48
1 78 37 120 l31 35 -89 107 c-110 133 -261 327 -316 405 -22 32 -43 58 -46 57
-4 0 -37 -24 -74 -52z"/>
<path d="M2925 1362 c-46 -29 -60 -49 -45 -67 18 -22 283 -234 427 -341 l127
-94 20 32 c26 40 27 104 4 140 -10 15 -84 79 -165 142 -82 64 -172 134 -200
157 -64 50 -121 61 -168 31z"/>
</g>
</svg>
