<?xml version="1.0" encoding="UTF-8"?>
<!DOCTYPE svg PUBLIC "-//W3C//DTD SVG 1.1//EN" "http://www.w3.org/Graphics/SVG/1.1/DTD/svg11.dtd">
<svg xmlns="http://www.w3.org/2000/svg" version="1.1" width="468px" height="373px" style="shape-rendering:geometricPrecision; text-rendering:geometricPrecision; image-rendering:optimizeQuality; fill-rule:evenodd; clip-rule:evenodd" xmlns:xlink="http://www.w3.org/1999/xlink">
<g><path style="opacity:1" fill="#f3f3f5" d="M -0.5,-0.5 C 155.5,-0.5 311.5,-0.5 467.5,-0.5C 467.5,123.833 467.5,248.167 467.5,372.5C 311.5,372.5 155.5,372.5 -0.5,372.5C -0.5,248.167 -0.5,123.833 -0.5,-0.5 Z"/></g>
<g><path style="opacity:1" fill="#0a0a0a" d="M 331.5,229.5 C 331.5,234.167 331.5,238.833 331.5,243.5C 340.167,243.5 348.833,243.5 357.5,243.5C 359.783,243.608 361.783,244.441 363.5,246C 371,254.167 378.5,262.333 386,270.5C 386.667,282.5 386.667,294.5 386,306.5C 383.106,312.479 378.273,315.313 371.5,315C 365.994,328.078 356.661,331.745 343.5,326C 339.643,323.151 336.977,319.485 335.5,315C 319.17,314.5 302.837,314.333 286.5,314.5C 282.913,326.468 274.913,330.968 262.5,328C 256.966,325.276 253.299,320.942 251.5,315C 243.693,316.257 237.526,313.757 233,307.5C 226.167,312.333 219.333,317.167 212.5,322C 211.167,322.667 209.833,322.667 208.5,322C 185.167,306 161.833,290 138.5,274C 119.085,258.019 107.252,237.519 103,212.5C 102.333,177.833 102.333,143.167 103,108.5C 138.533,90.4828 174.367,73.1495 210.5,56.5C 246.359,73.0947 282.025,90.2614 317.5,108C 318.662,142.095 318.829,176.262 318,210.5C 317.545,213.854 317.045,217.187 316.5,220.5C 323.949,219.714 328.949,222.714 331.5,229.5 Z"/></g>
<g><path style="opacity:1" fill="#f0f0f2" d="M 208.5,63.5 C 209.873,63.3433 211.207,63.51 212.5,64C 245.043,80.4384 277.71,96.605 310.5,112.5C 311.667,145.495 311.833,178.495 311,211.5C 310.498,214.513 309.998,217.513 309.5,220.5C 302.8,220.83 296.134,220.497 289.5,219.5C 290.645,216.252 291.479,212.919 292,209.5C 292.667,181.5 292.667,153.5 292,125.5C 264.836,111.918 237.502,98.585 210,85.5C 182.786,98.3765 155.786,111.71 129,125.5C 128.333,153.833 128.333,182.167 129,210.5C 132.401,227.476 140.568,241.642 153.5,253C 171.34,264.753 189.006,276.753 206.5,289C 208.365,290.301 210.365,290.635 212.5,290C 219.261,285.87 225.761,281.37 232,276.5C 232.832,284.521 232.665,292.521 231.5,300.5C 224.697,304.804 218.03,309.304 211.5,314C 210.092,314.315 208.759,313.982 207.5,313C 185.34,297.42 163.007,282.086 140.5,267C 123.683,252.204 113.517,233.704 110,211.5C 109.333,178.5 109.333,145.5 110,112.5C 142.971,96.2641 175.805,79.9308 208.5,63.5 Z"/></g>
<g><path style="opacity:1" fill="#f2f2f4" d="M 208.5,93.5 C 209.873,93.3433 211.207,93.51 212.5,94C 236.682,105.674 260.848,117.507 285,129.5C 285.667,156.5 285.667,183.5 285,210.5C 283.85,213.768 283.016,217.101 282.5,220.5C 268.496,220.333 254.496,220.5 240.5,221C 236.763,222.281 234.263,224.781 233,228.5C 232.667,241.833 232.333,255.167 232,268.5C 225.214,273.793 218.047,278.459 210.5,282.5C 193.034,271.262 175.701,259.762 158.5,248C 145.037,236.577 137.204,222.077 135,204.5C 134.167,179.493 134.334,154.493 135.5,129.5C 160.048,117.725 184.381,105.725 208.5,93.5 Z"/></g>
<g><path style="opacity:1" fill="#0c0c0c" d="M 235.5,168.5 C 239.487,168.652 240.987,170.652 240,174.5C 227.867,184.965 216.034,195.798 204.5,207C 203.167,207.667 201.833,207.667 200.5,207C 193.635,200.469 187.135,193.636 181,186.5C 179.88,182.32 181.38,180.486 185.5,181C 190.649,187.316 196.316,193.15 202.5,198.5C 214.144,189.188 225.144,179.188 235.5,168.5 Z"/></g>
<g><path style="opacity:1" fill="#f2f2f4" d="M 241.5,227.5 C 268.502,227.333 295.502,227.5 322.5,228C 323.333,228.833 324.167,229.667 325,230.5C 325.5,256.165 325.667,281.831 325.5,307.5C 312.5,307.5 299.5,307.5 286.5,307.5C 282.95,295.549 274.95,291.049 262.5,294C 256.408,296.586 252.741,301.086 251.5,307.5C 248.15,307.665 244.817,307.498 241.5,307C 241,306.5 240.5,306 240,305.5C 239.333,280.167 239.333,254.833 240,229.5C 240.717,228.956 241.217,228.289 241.5,227.5 Z"/></g>
<g><path style="opacity:1" fill="#818182" d="M 331.5,229.5 C 332.485,233.634 332.818,237.968 332.5,242.5C 341.017,242.174 349.35,242.507 357.5,243.5C 348.833,243.5 340.167,243.5 331.5,243.5C 331.5,238.833 331.5,234.167 331.5,229.5 Z"/></g>
<g><path style="opacity:1" fill="#727273" d="M 357.5,250.5 C 349.167,250.5 340.833,250.5 332.5,250.5C 332.5,256.833 332.5,263.167 332.5,269.5C 331.509,263.021 331.176,256.354 331.5,249.5C 340.349,249.174 349.016,249.507 357.5,250.5 Z"/></g>
<g><path style="opacity:1" fill="#efeff1" d="M 357.5,250.5 C 363.599,256.495 369.599,262.662 375.5,269C 361.171,269.5 346.837,269.667 332.5,269.5C 332.5,263.167 332.5,256.833 332.5,250.5C 340.833,250.5 349.167,250.5 357.5,250.5 Z"/></g>
<g><path style="opacity:1" fill="#f2f2f4" d="M 332.5,276.5 C 348.167,276.5 363.833,276.5 379.5,276.5C 379.819,286.416 379.486,296.25 378.5,306C 376.231,307.558 373.898,307.724 371.5,306.5C 364.96,292.53 354.96,289.363 341.5,297C 338.836,299.669 337.002,302.836 336,306.5C 334.989,307.337 333.822,307.67 332.5,307.5C 332.5,297.167 332.5,286.833 332.5,276.5 Z"/></g>
<g><path style="opacity:1" fill="#ebebed" d="M 265.5,299.5 C 276.319,298.818 281.153,303.818 280,314.5C 277.15,320.786 272.316,323.286 265.5,322C 258.93,318.345 256.763,312.845 259,305.5C 261.063,303.266 263.229,301.266 265.5,299.5 Z"/></g>
<g><path style="opacity:1" fill="#ececee" d="M 349.5,299.5 C 362.236,299.396 366.736,305.396 363,317.5C 354.987,324.895 348.32,323.895 343,314.5C 341.599,307.848 343.766,302.848 349.5,299.5 Z"/></g>
</svg>
