<?xml version="1.0" encoding="UTF-8"?>
<!DOCTYPE svg PUBLIC "-//W3C//DTD SVG 1.1//EN" "http://www.w3.org/Graphics/SVG/1.1/DTD/svg11.dtd">
<svg xmlns="http://www.w3.org/2000/svg" version="1.1" width="446px" height="326px" style="shape-rendering:geometricPrecision; text-rendering:geometricPrecision; image-rendering:optimizeQuality; fill-rule:evenodd; clip-rule:evenodd" xmlns:xlink="http://www.w3.org/1999/xlink">
<g><path style="opacity:1" fill="#f3f3f5" d="M -0.5,-0.5 C 148.167,-0.5 296.833,-0.5 445.5,-0.5C 445.5,108.167 445.5,216.833 445.5,325.5C 296.833,325.5 148.167,325.5 -0.5,325.5C -0.5,216.833 -0.5,108.167 -0.5,-0.5 Z"/></g>
<g><path style="opacity:1" fill="#040404" d="M 231.5,69.5 C 238.175,69.3337 244.842,69.5004 251.5,70C 274.833,97.3333 298.167,124.667 321.5,152C 312.5,152.667 303.5,152.667 294.5,152C 277.97,127.322 261.304,102.822 244.5,78.5C 243.502,102.328 243.169,126.328 243.5,150.5C 246.833,150.5 250.167,150.5 253.5,150.5C 253.665,154.182 253.499,157.848 253,161.5C 250.619,162.435 248.119,162.768 245.5,162.5C 245.579,163.93 245.246,165.264 244.5,166.5C 246.856,169.022 249.023,171.688 251,174.5C 251.617,185.868 246.45,189.702 235.5,186C 232.405,182.699 231.738,178.866 233.5,174.5C 234.812,177.159 236.479,179.659 238.5,182C 242.242,182.795 244.909,181.462 246.5,178C 243.366,173.364 240.032,168.864 236.5,164.5C 233.743,163.971 231.243,162.971 229,161.5C 228.501,157.848 228.335,154.182 228.5,150.5C 231.833,150.5 235.167,150.5 238.5,150.5C 238.5,126.5 238.5,102.5 238.5,78.5C 236.167,78.5 233.833,78.5 231.5,78.5C 231.5,75.5 231.5,72.5 231.5,69.5 Z"/></g>
<g><path style="opacity:1" fill="#979798" d="M 231.5,69.5 C 231.5,72.5 231.5,75.5 231.5,78.5C 233.833,78.5 236.167,78.5 238.5,78.5C 238.5,102.5 238.5,126.5 238.5,150.5C 235.167,150.5 231.833,150.5 228.5,150.5C 231.287,149.523 234.287,149.19 237.5,149.5C 237.5,126.167 237.5,102.833 237.5,79.5C 235.167,79.5 232.833,79.5 230.5,79.5C 230.187,75.9581 230.521,72.6248 231.5,69.5 Z"/></g>
<g><path style="opacity:1" fill="#656565" d="M 244.5,78.5 C 244.5,102.167 244.5,125.833 244.5,149.5C 247.713,149.19 250.713,149.523 253.5,150.5C 250.167,150.5 246.833,150.5 243.5,150.5C 243.169,126.328 243.502,102.328 244.5,78.5 Z"/></g>
<g><path style="opacity:1" fill="#050505" d="M 196.5,150.5 C 202.275,149.775 207.608,150.941 212.5,154C 216,158.167 219.5,162.333 223,166.5C 223.847,169.588 223.347,172.421 221.5,175C 216.203,177.88 210.703,180.38 205,182.5C 192.843,167.988 180.843,167.988 169,182.5C 167.552,188.362 167.052,194.195 167.5,200C 150.871,208.213 134.038,216.046 117,223.5C 113.811,219.652 109.977,216.485 105.5,214C 93.0653,210.467 84.232,214.633 79,226.5C 78.0044,231.229 78.5044,235.729 80.5,240C 69.4355,249.246 61.9355,247.079 58,233.5C 57.3934,230.798 57.5601,228.132 58.5,225.5C 56.4951,219.666 53.9951,213.999 51,208.5C 50.2571,205.217 50.9238,202.217 53,199.5C 59.7404,193.43 65.7404,186.763 71,179.5C 83.0957,165.372 98.2623,156.872 116.5,154C 123.5,153.333 130.5,153.333 137.5,154C 146.91,155.188 156.243,156.688 165.5,158.5C 176.27,157.225 186.604,154.558 196.5,150.5 Z"/></g>
<g><path style="opacity:1" fill="#ededef" d="M 117.5,160.5 C 131.145,159.504 144.479,161.004 157.5,165C 158.833,166.667 158.833,168.333 157.5,170C 144.394,176.303 131.227,182.47 118,188.5C 117.228,188.355 116.561,188.022 116,187.5C 112.255,180.603 109.089,173.437 106.5,166C 106.585,164.893 106.919,163.893 107.5,163C 111.038,162.465 114.372,161.632 117.5,160.5 Z"/></g>
<g><path style="opacity:1" fill="#020202" d="M 341.5,161.5 C 341.5,181.167 341.5,200.833 341.5,220.5C 337.833,220.5 334.167,220.5 330.5,220.5C 324.711,206.1 314.044,200.266 298.5,203C 290.056,206.276 284.056,212.11 280.5,220.5C 274.872,221.495 269.206,221.829 263.5,221.5C 263.5,219.167 263.5,216.833 263.5,214.5C 267.641,214.424 269.308,212.257 268.5,208C 269.407,203.742 267.741,201.909 263.5,202.5C 263.334,194.493 263.5,186.493 264,178.5C 266.904,169.93 272.737,164.43 281.5,162C 301.497,161.5 321.497,161.333 341.5,161.5 Z"/></g>
<g><path style="opacity:1" fill="#3c3c3d" d="M 341.5,161.5 C 342.497,181.326 342.83,201.326 342.5,221.5C 338.298,221.817 334.298,221.483 330.5,220.5C 334.167,220.5 337.833,220.5 341.5,220.5C 341.5,200.833 341.5,181.167 341.5,161.5 Z"/></g>
<g><path style="opacity:1" fill="#efeff1" d="M 94.5,168.5 C 96.1439,168.286 97.6439,168.62 99,169.5C 102.878,176.416 106.044,183.582 108.5,191C 108.167,191.833 107.833,192.667 107.5,193.5C 93.3492,199.743 79.3492,206.243 65.5,213C 61.4047,213.751 59.2381,211.918 59,207.5C 58.3333,206.167 58.3333,204.833 59,203.5C 66.2833,195.761 73.4499,187.928 80.5,180C 85.0651,175.925 89.7317,172.091 94.5,168.5 Z"/></g>
<g><path style="opacity:1" fill="#0d0d0e" d="M 181.5,176.5 C 191.464,174.563 198.297,178.229 202,187.5C 201.524,203.655 193.691,209.155 178.5,204C 168.322,193.432 169.322,184.265 181.5,176.5 Z"/></g>
<g><path style="opacity:1" fill="#ececee" d="M 182.5,182.5 C 192.158,180.993 196.325,184.993 195,194.5C 191.089,200.894 186.089,201.894 180,197.5C 176.253,191.734 177.087,186.734 182.5,182.5 Z"/></g>
<g><path style="opacity:1" fill="#dedee0" d="M 125.5,188.5 C 129.252,188.501 130.252,190.167 128.5,193.5C 126.028,195.251 123.361,196.085 120.5,196C 119.483,194.951 119.316,193.784 120,192.5C 121.812,191.023 123.645,189.69 125.5,188.5 Z"/></g>
<g><path style="opacity:1" fill="#070707" d="M 301.5,208.5 C 321.257,209.748 328.091,219.748 322,238.5C 313.459,248.637 303.625,250.137 292.5,243C 284.003,233.873 283.503,224.373 291,214.5C 294.069,211.554 297.569,209.554 301.5,208.5 Z"/></g>
<g><path style="opacity:1" fill="#e7e7e9" d="M 69.5,214.5 C 71.1667,214.5 72.8333,214.5 74.5,214.5C 74.3603,218.782 72.027,221.115 67.5,221.5C 65.7336,221.566 64.7336,220.732 64.5,219C 65.7615,217.038 67.4281,215.538 69.5,214.5 Z"/></g>
<g><path style="opacity:1" fill="#0a0a0a" d="M 92.5,217.5 C 106.996,215.835 113.83,222.168 113,236.5C 108.158,247.228 100.324,250.061 89.5,245C 80.6514,234.645 81.6514,225.478 92.5,217.5 Z"/></g>
<g><path style="opacity:1" fill="#ebebed" d="M 303.5,219.5 C 311.684,219.537 314.851,223.537 313,231.5C 310.774,235.861 307.274,237.361 302.5,236C 297.931,233.459 296.431,229.625 298,224.5C 299.107,221.887 300.94,220.22 303.5,219.5 Z"/></g>
<g><path style="opacity:1" fill="#ebebed" d="M 94.5,223.5 C 105.833,223.305 109.333,228.305 105,238.5C 98.8193,243.237 93.8193,242.237 90,235.5C 88.4742,230.239 89.9742,226.239 94.5,223.5 Z"/></g>
</svg>
